<svg width="25" height="26" viewBox="0 0 25 26" fill="none" xmlns="http://www.w3.org/2000/svg">
<path d="M8.25195 17.4215C6.89679 18.1058 5.97991 18.9007 5.45021 19.7782C4.93472 20.6304 4.43495 21.4938 3.9512 22.368C5.46231 22.7279 6.59833 22.5553 7.41708 21.9536C8.56251 21.113 9.31 20.1528 9.72542 19.0379L8.25195 17.4215ZM10.1274 15.3081L11.4987 16.8124C12.4962 16.249 13.5005 15.3567 14.5021 14.1105C16.0334 12.208 18.6173 8.81887 22.2418 3.96376C22.2851 3.90387 22.3069 3.82857 22.3028 3.75224C22.2988 3.6759 22.2692 3.60388 22.2199 3.5499C22.1705 3.49593 22.1047 3.46378 22.0351 3.45959C21.9655 3.45541 21.897 3.47948 21.8425 3.52722C17.4248 7.4989 14.3367 10.3335 12.5917 12.0192C11.4503 13.1194 10.6369 14.2182 10.1274 15.3081ZM8.9134 24.4047C6.74219 25.999 3.76971 25.853 0 23.9653C0.999155 21.9801 2.06969 20.0392 3.20909 18.1471C4.08968 16.6914 5.51071 15.5013 7.47085 14.5751C8.12289 12.9144 9.23874 11.3261 10.8144 9.80257C12.589 8.08883 15.6973 5.23653 20.1392 1.2442C20.7092 0.728827 21.4337 0.464854 22.1715 0.503762C22.9093 0.542671 23.6075 0.88167 24.1298 1.45464C24.6521 2.02762 24.9611 2.79348 24.9966 3.60285C25.032 4.41222 24.7914 5.20707 24.3216 5.83236C20.6783 10.714 18.0769 14.1223 16.5187 16.0602C15.2039 17.6943 13.8299 18.8786 12.3954 19.6116C11.8173 21.5259 10.6571 23.1231 8.9134 24.4047Z" fill="#004A55"/>
</svg>
