<svg width="23" height="23" viewBox="0 0 23 23" fill="none" xmlns="http://www.w3.org/2000/svg">
<path d="M20.7096 17.9623C22.172 16.6646 23 14.935 23 13.1401C23 11.2325 22.1031 9.44854 20.4745 8.11644C18.8894 6.82042 16.7914 6.10657 14.5665 6.10657C12.3417 6.10657 10.2436 6.82042 8.65879 8.11654C7.03017 9.44854 6.13327 11.2325 6.13327 13.1401C6.13327 15.0476 7.03017 16.8316 8.65879 18.1637C10.2436 19.4598 12.3417 20.1736 14.5665 20.1736C14.863 20.1736 15.1613 20.1606 15.457 20.1347L15.9624 20.5708C17.7032 22.0727 19.9296 22.8996 22.2331 22.8997H22.9998V21.2749L22.7752 21.0514C21.8895 20.1669 21.1875 19.1171 20.7096 17.9623ZM16.9666 19.417L15.9526 18.542L15.6145 18.5833C15.2668 18.6256 14.9168 18.6468 14.5665 18.6469C10.762 18.6469 7.66659 16.1765 7.66659 13.1401C7.66659 10.1036 10.762 7.63321 14.5665 7.63321C18.3711 7.63321 21.4664 10.1036 21.4664 13.1401C21.4664 14.6529 20.7084 16.0652 19.332 17.1169L18.8904 17.4542L19.0942 18.0284C19.5117 19.201 20.1254 20.2949 20.9093 21.2638C19.4494 21.0211 18.0851 20.3821 16.9666 19.417Z" fill="#A7CDCC"/>
<path d="M2.11718 14.3827C2.83483 13.4782 3.39829 12.4625 3.78504 11.376L3.98725 10.8047L3.54608 10.4676C2.24813 9.47598 1.53332 8.14503 1.53332 6.71996C1.53332 3.85635 4.45663 1.52665 8.04992 1.52665C10.6934 1.52665 12.9741 2.78756 13.9952 4.59425C14.1848 4.58509 14.3752 4.57994 14.5665 4.57994C14.9507 4.57994 15.3314 4.59849 15.7085 4.63561C15.314 3.61777 14.6287 2.68861 13.6865 1.91813C12.1742 0.681218 10.1726 0 8.04992 0C5.92723 0 3.92568 0.681218 2.41325 1.91813C0.857028 3.19093 0 4.89624 0 6.71996C0 8.42789 0.783525 10.0736 2.16821 11.3115C1.71633 12.3942 1.05605 13.3784 0.224583 14.2087L0 14.4323V16.0298H0.766659C2.18436 16.0296 3.58256 15.7009 4.8506 15.0697C4.71156 14.5449 4.63008 14.0068 4.60762 13.4645C3.83798 13.9136 2.99498 14.2244 2.11718 14.3827Z" fill="#A7CDCC"/>
</svg>
