<svg width="88" height="88" viewBox="0 0 88 88" fill="none" xmlns="http://www.w3.org/2000/svg">
<path d="M82.1962 41.0981V46.5778H16.4392V16.4392H43.838V10.9595H13.6994C12.9727 10.9595 12.2758 11.2482 11.762 11.762C11.2482 12.2758 10.9595 12.9727 10.9595 13.6994V46.5778H5.47975V8.21962C5.47975 7.49296 5.76841 6.79606 6.28224 6.28224C6.79606 5.76841 7.49296 5.47975 8.21962 5.47975H49.3177V0H8.21962C6.03964 0 3.94895 0.865993 2.40747 2.40747C0.865993 3.94895 0 6.03964 0 8.21962L0 63.0171C0 63.7437 0.288664 64.4406 0.80249 64.9545C1.31632 65.4683 2.01321 65.757 2.73987 65.757H26.9878L25.0424 79.4563H21.919C21.1923 79.4563 20.4954 79.745 19.9816 80.2588C19.4678 80.7726 19.1791 81.4695 19.1791 82.1962H13.6994V87.6759H73.9766V82.1962H68.4968C68.4968 81.4695 68.2082 80.7726 67.6943 80.2588C67.1805 79.745 66.4836 79.4563 65.757 79.4563H62.6609L60.7156 65.757H84.9361C85.6627 65.757 86.3596 65.4683 86.8735 64.9545C87.3873 64.4406 87.6759 63.7437 87.6759 63.0171V41.0981H82.1962ZM30.5496 79.4563L32.4949 65.757H55.1536L57.099 79.4563H30.5496ZM82.1962 60.2772H5.47975V52.0576H82.1962V60.2772Z" fill="#004A55"/>
<path d="M59.0991 24.6589L55.6194 28.1385L59.4826 32.0017L63.0171 28.5769C63.8739 29.0831 64.7957 29.4702 65.757 29.7276V35.6184H71.2367V29.755C72.198 29.4976 73.1198 29.1105 73.9766 28.6043L77.4562 32.0839L81.3194 28.2207L77.8946 24.6589C78.4008 23.802 78.7879 22.8803 79.0453 21.919H84.9361V16.4392H79.0727C78.8153 15.4779 78.4282 14.5562 77.922 13.6994L81.4016 10.2197L77.511 6.27431L73.9766 9.78135C73.1198 9.27515 72.198 8.88801 71.2367 8.6306V2.73987H65.757V8.6032C64.7957 8.86061 63.8739 9.24775 63.0171 9.75395L59.4826 6.27431L55.592 10.1649L59.0991 13.6994C58.5929 14.5562 58.2057 15.4779 57.9483 16.4392H52.0576V21.919H57.9209C58.1869 22.8817 58.5833 23.8035 59.0991 24.6589ZM68.4968 13.6994C69.5806 13.6994 70.6401 14.0207 71.5412 14.6229C72.4424 15.225 73.1447 16.0808 73.5595 17.0821C73.9742 18.0834 74.0827 19.1852 73.8713 20.2482C73.6598 21.3111 73.138 22.2875 72.3716 23.0539C71.6052 23.8202 70.6288 24.3421 69.5659 24.5536C68.5029 24.765 67.4011 24.6565 66.3998 24.2417C65.3985 23.827 64.5427 23.1246 63.9406 22.2235C63.3385 21.3224 63.0171 20.2629 63.0171 19.1791C63.0171 17.7258 63.5944 16.332 64.6221 15.3043C65.6497 14.2767 67.0435 13.6994 68.4968 13.6994Z" fill="#004A55"/>
</svg>
