<svg width="31" height="31" viewBox="0 0 31 31" fill="none" xmlns="http://www.w3.org/2000/svg">
<path d="M25.0584 9.48089L21.5192 5.94173C21.0573 5.50785 20.452 5.2589 19.8185 5.24223C19.185 5.22556 18.5674 5.44233 18.0834 5.85131L6.45835 17.4763C6.04084 17.8973 5.78088 18.4492 5.7221 19.0392L5.16668 24.4255C5.14928 24.6147 5.17383 24.8054 5.23858 24.984C5.30333 25.1626 5.40668 25.3247 5.54127 25.4588C5.66196 25.5785 5.8051 25.6732 5.96247 25.7375C6.11984 25.8018 6.28836 25.8344 6.45835 25.8334H6.5746L11.9609 25.3426C12.5509 25.2838 13.1027 25.0238 13.5238 24.6063L25.1488 12.9813C25.6 12.5046 25.8438 11.8685 25.8269 11.2124C25.8099 10.5563 25.5336 9.93363 25.0584 9.48089ZM11.7284 22.7592L7.85335 23.1209L8.2021 19.2459L15.5 12.0384L18.9875 15.5259L11.7284 22.7592ZM20.6667 13.7951L17.205 10.3334L19.7238 7.75006L23.25 11.2763L20.6667 13.7951Z" fill="#A7CDCC"/>
</svg>
