<svg width="22" height="25" viewBox="0 0 22 25" fill="none" xmlns="http://www.w3.org/2000/svg">
<path d="M17.5867 5.20829C17.5867 4.93203 17.494 4.66707 17.3291 4.47172C17.1642 4.27637 16.9405 4.16663 16.7073 4.16663H12.3107C12.0774 4.16663 11.8538 4.27637 11.6889 4.47172C11.524 4.66707 11.4313 4.93203 11.4313 5.20829C11.4313 5.48456 11.524 5.74951 11.6889 5.94486C11.8538 6.14021 12.0774 6.24996 12.3107 6.24996H14.5705L11.6863 9.67704C11.6039 9.77388 11.5385 9.88909 11.4939 10.016C11.4492 10.143 11.4262 10.2791 11.4262 10.4166C11.4262 10.5541 11.4492 10.6903 11.4939 10.8172C11.5385 10.9442 11.6039 11.0594 11.6863 11.1562C11.7681 11.2538 11.8653 11.3313 11.9725 11.3842C12.0796 11.4371 12.1946 11.4643 12.3107 11.4643C12.4267 11.4643 12.5417 11.4371 12.6488 11.3842C12.756 11.3313 12.8532 11.2538 12.935 11.1562L15.828 7.72913V10.4166C15.828 10.6929 15.9206 10.9578 16.0855 11.1532C16.2504 11.3485 16.4741 11.4583 16.7073 11.4583C16.9405 11.4583 17.1642 11.3485 17.3291 11.1532C17.494 10.9578 17.5867 10.6929 17.5867 10.4166V5.20829Z" fill="#A7CDCC"/>
<path d="M9.41764 13.8438C9.3359 13.7461 9.23864 13.6686 9.13149 13.6158C9.02433 13.5629 8.9094 13.5356 8.79331 13.5356C8.67723 13.5356 8.5623 13.5629 8.45514 13.6158C8.34799 13.6686 8.25073 13.7461 8.16899 13.8438L5.27598 17.2604V14.5834C5.27598 14.3071 5.18334 14.0421 5.01843 13.8468C4.85353 13.6514 4.62986 13.5417 4.39665 13.5417C4.16344 13.5417 3.93978 13.6514 3.77487 13.8468C3.60996 14.0421 3.51732 14.3071 3.51732 14.5834V19.7917C3.51732 20.068 3.60996 20.3329 3.77487 20.5283C3.93978 20.7236 4.16344 20.8334 4.39665 20.8334H8.79331C9.02653 20.8334 9.25019 20.7236 9.4151 20.5283C9.58 20.3329 9.67265 20.068 9.67265 19.7917C9.67265 19.5154 9.58 19.2505 9.4151 19.0551C9.25019 18.8598 9.02653 18.75 8.79331 18.75H6.52464L9.41764 15.3229C9.50006 15.2261 9.56548 15.1109 9.61012 14.984C9.65476 14.857 9.67775 14.7209 9.67775 14.5834C9.67775 14.4458 9.65476 14.3097 9.61012 14.1828C9.56548 14.0558 9.50006 13.9406 9.41764 13.8438Z" fill="#A7CDCC"/>
</svg>
