<svg width="22" height="23" viewBox="0 0 22 23" fill="none" xmlns="http://www.w3.org/2000/svg">
<path d="M11 0C4.92507 0 0 5.10413 0 11.3999C0 17.6957 4.92507 22.7999 11 22.7999C17.0749 22.7999 22 17.6957 22 11.3999C22 5.10413 17.0749 0 11 0ZM12.8333 18.9049H9.16667V9.78495H12.8333V18.9049ZM11 7.69496C9.98763 7.69496 9.16667 6.84452 9.16667 5.79497C9.16667 4.74541 9.98763 3.89498 11 3.89498C12.0127 3.89498 12.8333 4.74541 12.8333 5.79497C12.8333 6.84452 12.0127 7.69496 11 7.69496Z" fill="#A7CDCC"/>
</svg>
