<svg width="24" height="24" viewBox="0 0 24 24" fill="none" xmlns="http://www.w3.org/2000/svg">
<path d="M4.91719 12.2898C5.14725 12.0547 5.45892 11.9227 5.78385 11.9227C6.10878 11.9227 6.42045 12.0547 6.65052 12.2898C6.76417 12.4061 6.85434 12.5442 6.91585 12.6962C6.97737 12.8483 7.00904 13.0112 7.00904 13.1758C7.00904 13.3404 6.97737 13.5033 6.91585 13.6554C6.85434 13.8074 6.76417 13.9455 6.65052 14.0618L4.05053 16.7217C3.82302 16.9543 3.64254 17.2306 3.51939 17.5348C3.39624 17.839 3.33285 18.165 3.33285 18.4943C3.33285 18.8236 3.39624 19.1497 3.51939 19.4539C3.64254 19.7581 3.82302 20.0344 4.05053 20.267C4.51065 20.7372 5.13399 21.0012 5.78385 21.0012C6.43372 21.0012 7.05706 20.7372 7.51718 20.267L13.5826 14.0618C13.6962 13.9455 13.7864 13.8074 13.8479 13.6554C13.9094 13.5033 13.9411 13.3404 13.9411 13.1758C13.9411 13.0112 13.9094 12.8483 13.8479 12.6962C13.7864 12.5442 13.6962 12.4061 13.5826 12.2898C13.4687 12.1735 13.3784 12.0353 13.3168 11.8832C13.2551 11.731 13.2234 11.5679 13.2234 11.4032C13.2234 11.2384 13.2551 11.0753 13.3168 10.9232C13.3784 10.771 13.4687 10.6328 13.5826 10.5165C13.8126 10.2814 14.1243 10.1494 14.4492 10.1494C14.7742 10.1494 15.0858 10.2814 15.3159 10.5165C15.6572 10.8655 15.928 11.28 16.1128 11.7363C16.2976 12.1926 16.3927 12.6818 16.3927 13.1758C16.3927 13.6698 16.2976 14.159 16.1128 14.6153C15.928 15.0716 15.6572 15.4861 15.3159 15.8351L9.24924 22.0403C8.32916 22.981 7.08242 23.5093 5.78259 23.5093C4.48276 23.5093 3.23601 22.981 2.31593 22.0403C1.86093 21.575 1.49995 21.0224 1.25366 20.4141C1.00736 19.8057 0.880585 19.1536 0.880585 18.495C0.880585 17.8364 1.00736 17.1843 1.25366 16.5759C1.49995 15.9676 1.86093 15.415 2.31593 14.9497L4.91719 12.2885V12.2898ZM19.6188 11.3954C19.3888 11.6305 19.0771 11.7625 18.7522 11.7625C18.4272 11.7625 18.1156 11.6305 17.8855 11.3954C17.7719 11.2791 17.6817 11.141 17.6202 10.989C17.5587 10.8369 17.527 10.674 17.527 10.5094C17.527 10.3448 17.5587 10.1819 17.6202 10.0298C17.6817 9.87781 17.7719 9.7397 17.8855 9.62341L20.4855 6.96349C20.713 6.73087 20.8935 6.45457 21.0166 6.1504C21.1398 5.84622 21.2032 5.52016 21.2032 5.19085C21.2032 4.86155 21.1398 4.53548 21.0166 4.23131C20.8935 3.92714 20.713 3.65084 20.4855 3.41822C20.0254 2.94803 19.402 2.68399 18.7522 2.68399C18.1023 2.68399 17.479 2.94803 17.0188 3.41822L10.9547 9.62341C10.8411 9.7397 10.7509 9.87781 10.6894 10.0298C10.6279 10.1819 10.5962 10.3448 10.5962 10.5094C10.5962 10.674 10.6279 10.8369 10.6894 10.989C10.7509 11.141 10.8411 11.2791 10.9547 11.3954C11.0686 11.5117 11.1589 11.6499 11.2205 11.802C11.2822 11.9542 11.3139 12.1173 11.3139 12.282C11.3139 12.4468 11.2822 12.6099 11.2205 12.762C11.1589 12.9142 11.0686 13.0524 10.9547 13.1687C10.7247 13.4038 10.413 13.5358 10.0881 13.5358C9.76314 13.5358 9.45147 13.4038 9.22141 13.1687C8.88006 12.8197 8.60925 12.4052 8.42447 11.9489C8.23969 11.4926 8.14458 11.0034 8.14458 10.5094C8.14458 10.0154 8.23969 9.52619 8.42447 9.06988C8.60925 8.61356 8.88006 8.19907 9.22141 7.85013L15.288 1.64494C16.2081 0.704246 17.4549 0.175934 18.7547 0.175934C20.0545 0.175934 21.3013 0.704246 22.2214 1.64494C22.6764 2.11018 23.0373 2.66278 23.2836 3.27112C23.5299 3.87947 23.6567 4.5316 23.6567 5.19021C23.6567 5.84881 23.5299 6.50095 23.2836 7.10929C23.0373 7.71763 22.6764 8.27024 22.2214 8.73547L19.6188 11.3967V11.3954Z" fill="#A7CDCC"/>
</svg>
