<svg width="28" height="25" viewBox="0 0 28 25" fill="none" xmlns="http://www.w3.org/2000/svg">
<path d="M22.5385 16.996H23.9038C24.266 16.996 24.6133 16.8681 24.8693 16.6404C25.1254 16.4128 25.2692 16.104 25.2692 15.782V8.49801C25.2692 8.17604 25.1254 7.86725 24.8693 7.63958C24.6133 7.41191 24.266 7.28401 23.9038 7.28401H4.78847C4.42635 7.28401 4.07906 7.41191 3.823 7.63958C3.56694 7.86725 3.42309 8.17604 3.42309 8.49801V15.782C3.42309 16.104 3.56694 16.4128 3.823 16.6404C4.07906 16.8681 4.42635 16.996 4.78847 16.996H6.15386V10.926H22.5385V16.996ZM6.15386 4.85601V0H22.5385V4.85601H23.9038C24.9902 4.85601 26.0321 5.23972 26.8003 5.92272C27.5684 6.60573 28 7.53209 28 8.49801V15.782C28 16.7479 27.5684 17.6743 26.8003 18.3573C26.0321 19.0403 24.9902 19.424 23.9038 19.424H22.5385V24.28H6.15386V19.424H4.78847C3.70211 19.424 2.66023 19.0403 1.89206 18.3573C1.12388 17.6743 0.692322 16.7479 0.692322 15.782L0.692322 8.49801C0.692322 7.53209 1.12388 6.60573 1.89206 5.92272C2.66023 5.23972 3.70211 4.85601 4.78847 4.85601H6.15386ZM8.88462 21.852H19.8077V13.354H8.88462V21.852ZM8.88462 4.85601H19.8077V2.428H8.88462V4.85601Z" fill="#A7CDCC"/>
</svg>
