<svg width="33" height="31" viewBox="0 0 33 31" fill="none" xmlns="http://www.w3.org/2000/svg">
<path d="M26.2308 21.196H27.8615C28.294 21.196 28.7088 21.0365 29.0147 20.7526C29.3205 20.4686 29.4923 20.0835 29.4923 19.682V10.598C29.4923 10.1965 29.3205 9.81137 29.0147 9.52744C28.7088 9.24351 28.294 9.084 27.8615 9.084H5.03077C4.59826 9.084 4.18347 9.24351 3.87764 9.52744C3.57181 9.81137 3.4 10.1965 3.4 10.598V19.682C3.4 20.0835 3.57181 20.4686 3.87764 20.7526C4.18347 21.0365 4.59826 21.196 5.03077 21.196H6.66153V13.626H26.2308V21.196ZM6.66153 6.056V0H26.2308V6.056H27.8615C29.1591 6.056 30.4034 6.53453 31.3209 7.38632C32.2384 8.23811 32.7538 9.39339 32.7538 10.598V19.682C32.7538 20.8866 32.2384 22.0419 31.3209 22.8937C30.4034 23.7455 29.1591 24.224 27.8615 24.224H26.2308V30.28H6.66153V24.224H5.03077C3.73325 24.224 2.48887 23.7455 1.57138 22.8937C0.653896 22.0419 0.138458 20.8866 0.138458 19.682L0.138458 10.598C0.138458 9.39339 0.653896 8.23811 1.57138 7.38632C2.48887 6.53453 3.73325 6.056 5.03077 6.056H6.66153ZM9.92307 27.252H22.9692V16.654H9.92307V27.252ZM9.92307 6.056H22.9692V3.028H9.92307V6.056Z" fill="black"/>
</svg>
