<svg width="28" height="29" viewBox="0 0 28 29" fill="#004A55" xmlns="http://www.w3.org/2000/svg"><g fill="#61DAFB">
<path d="M22.3267 9.25616L22.7795 7.83193C22.8209 7.70202 22.8886 7.5812 22.9786 7.47637C23.0687 7.37155 23.1794 7.28477 23.3045 7.221C23.4295 7.15723 23.5664 7.11771 23.7073 7.10469C23.8483 7.09168 23.9905 7.10543 24.1259 7.14516C24.2614 7.18489 24.3873 7.24982 24.4965 7.33624C24.6058 7.42266 24.6962 7.52889 24.7627 7.64884C24.8292 7.7688 24.8704 7.90015 24.8839 8.03538C24.8975 8.17061 24.8832 8.30708 24.8418 8.437L23.5805 12.3932C23.4969 12.6554 23.3082 12.875 23.0559 13.0038C22.8036 13.1325 22.5084 13.1599 22.2351 13.08L18.1116 11.8698C17.9733 11.8325 17.8443 11.769 17.7319 11.6832C17.6196 11.5973 17.5263 11.4908 17.4575 11.3699C17.3887 11.2489 17.3457 11.116 17.3312 10.9789C17.3166 10.8419 17.3308 10.7034 17.3728 10.5716C17.4148 10.4399 17.4839 10.3175 17.5759 10.2117C17.6678 10.1059 17.781 10.0188 17.9085 9.95548C18.0361 9.8922 18.1756 9.854 18.3187 9.84314C18.4619 9.83229 18.6059 9.84899 18.7422 9.89226L20.5447 10.4208C19.7479 9.26123 18.6364 8.3322 17.3301 7.73376C16.0237 7.13532 14.5719 6.89015 13.1311 7.02464C11.6903 7.15913 10.315 7.66819 9.15336 8.497C7.99173 9.32581 7.08777 10.443 6.53885 11.7281L6.25856 12.3828C6.20758 12.5121 6.13013 12.6302 6.03077 12.7303C5.93142 12.8303 5.81218 12.9102 5.68009 12.9653C5.54801 13.0204 5.40575 13.0496 5.26173 13.051C5.11771 13.0525 4.97485 13.0262 4.84157 12.9739C4.7083 12.9215 4.58732 12.844 4.48577 12.746C4.38423 12.648 4.30418 12.5315 4.25036 12.4033C4.19654 12.2751 4.17003 12.1379 4.17241 11.9997C4.17478 11.8616 4.20599 11.7253 4.26419 11.5988L4.54448 10.9441C5.24114 9.31334 6.38762 7.89539 7.86082 6.84255C9.33402 5.7897 11.0783 5.14173 12.9064 4.9682C14.7344 4.79467 16.5772 5.10214 18.2369 5.8576C19.8966 6.61305 21.3105 7.78796 22.3267 9.25616ZM5.59341 20.2332L5.24089 21.5891C5.20935 21.7236 5.15011 21.8507 5.06665 21.9629C4.98319 22.0751 4.8772 22.1702 4.75491 22.2425C4.63261 22.3148 4.49648 22.363 4.35451 22.3841C4.21254 22.4053 4.06759 22.399 3.9282 22.3656C3.7888 22.3322 3.65776 22.2725 3.54278 22.1898C3.4278 22.1072 3.33119 22.0033 3.25865 21.8843C3.1861 21.7654 3.13907 21.6337 3.12033 21.497C3.10158 21.3603 3.1115 21.2215 3.1495 21.0885L4.19196 17.0755C4.22713 16.9388 4.291 16.8105 4.37965 16.6984C4.4683 16.5862 4.57987 16.4926 4.70754 16.4233C4.8352 16.354 4.97627 16.3104 5.1221 16.2952C5.26794 16.28 5.41547 16.2935 5.55568 16.3349L9.6824 17.3216C9.95988 17.388 10.1985 17.5574 10.3458 17.7926C10.4931 18.0278 10.5369 18.3095 10.4678 18.5757C10.3986 18.8419 10.222 19.0709 9.97684 19.2122C9.73171 19.3535 9.43811 19.3956 9.16063 19.3292L7.23526 18.8689C8.05836 20.0779 9.22182 21.0381 10.5907 21.6384C11.9596 22.2386 13.4778 22.4543 14.9692 22.2602C16.4606 22.0662 17.8641 21.4705 19.017 20.5422C20.1698 19.6139 21.0248 18.391 21.4826 17.0155C21.5695 16.754 21.7611 16.5365 22.0152 16.4106C22.1411 16.3482 22.2785 16.3103 22.4196 16.2989C22.5607 16.2875 22.7028 16.3029 22.8377 16.3442C22.9726 16.3855 23.0977 16.4519 23.2059 16.5396C23.3141 16.6273 23.4032 16.7345 23.4682 16.8552C23.5331 16.976 23.5727 17.1078 23.5845 17.2432C23.5964 17.3786 23.5804 17.5149 23.5373 17.6443C23.0885 18.9951 22.3367 20.2351 21.3347 21.277C20.3326 22.319 19.1048 23.1376 17.7375 23.6753C15.6071 24.5127 13.2428 24.628 11.0349 24.0021C8.82695 23.3763 6.9075 22.0468 5.59341 20.2332Z" fill="#004A55"/></g>
</svg>
