<svg width="29" height="29" viewBox="0 0 29 29" fill="none" xmlns="http://www.w3.org/2000/svg">
<path d="M3.63249 0H21.4215C22.2101 8.40995e-05 22.9703 0.293383 23.5539 0.822654L27.9615 4.82044C28.2886 5.11696 28.5499 5.47843 28.7287 5.88164C28.9076 6.28485 29 6.7209 29 7.16184V25.3124C29 26.1516 28.6659 26.9564 28.0713 27.5498C27.4766 28.1431 26.6701 28.4765 25.8291 28.4765H3.63249C2.7915 28.4765 1.98496 28.1431 1.39029 27.5498C0.795628 26.9564 0.461548 26.1516 0.461548 25.3124V3.16405C0.461548 2.32489 0.795628 1.52011 1.39029 0.92673C1.98496 0.333355 2.7915 0 3.63249 0ZM3.63249 3.16405V25.3124H25.8291V7.16184L21.4215 3.16405H3.63249ZM9.97437 15.8203H19.4872C20.3282 15.8203 21.1347 16.1536 21.7294 16.747C22.324 17.3404 22.6581 18.1452 22.6581 18.9843V25.3124C22.6581 26.1516 22.324 26.9564 21.7294 27.5498C21.1347 28.1431 20.3282 28.4765 19.4872 28.4765H9.97437C9.13338 28.4765 8.32684 28.1431 7.73217 27.5498C7.13751 26.9564 6.80343 26.1516 6.80343 25.3124V18.9843C6.80343 18.1452 7.13751 17.3404 7.73217 16.747C8.32684 16.1536 9.13338 15.8203 9.97437 15.8203ZM9.97437 18.9843V25.3124H19.4872V18.9843H9.97437ZM21.0727 4.74608C21.4932 4.74608 21.8964 4.91276 22.1938 5.20945C22.4911 5.50613 22.6581 5.90853 22.6581 6.32811V11.0742C22.6581 11.4938 22.4911 11.8962 22.1938 12.1929C21.8964 12.4895 21.4932 12.6562 21.0727 12.6562C20.6522 12.6562 20.2489 12.4895 19.9516 12.1929C19.6542 11.8962 19.4872 11.4938 19.4872 11.0742V6.32811C19.4872 5.90853 19.6542 5.50613 19.9516 5.20945C20.2489 4.91276 20.6522 4.74608 21.0727 4.74608ZM8.3889 4.74608H16.3162C16.7367 4.74608 17.14 4.91276 17.4373 5.20945C17.7347 5.50613 17.9017 5.90853 17.9017 6.32811V11.0742C17.9017 11.4938 17.7347 11.8962 17.4373 12.1929C17.14 12.4895 16.7367 12.6562 16.3162 12.6562H8.3889C7.96841 12.6562 7.56514 12.4895 7.2678 12.1929C6.97047 11.8962 6.80343 11.4938 6.80343 11.0742V6.32811C6.80343 5.90853 6.97047 5.50613 7.2678 5.20945C7.56514 4.91276 7.96841 4.74608 8.3889 4.74608ZM9.97437 9.49216H14.7308V7.91014H9.97437V9.49216Z" fill="black"/>
</svg>
