<svg width="30" height="30" viewBox="0 0 30 30" fill="none" xmlns="http://www.w3.org/2000/svg">
<path d="M13.1838 22.9019C14.4822 22.9019 15.7679 22.6481 16.9675 22.1548C18.1671 21.6616 19.257 20.9386 20.1752 20.0272C21.0933 19.1159 21.8216 18.0339 22.3184 16.8431C22.8153 15.6523 23.0711 14.3761 23.0711 13.0872C23.0711 11.7983 22.8153 10.522 22.3184 9.33122C21.8216 8.14044 21.0933 7.05847 20.1752 6.14708C19.257 5.2357 18.1671 4.51275 16.9675 4.01951C15.7679 3.52628 14.4822 3.27241 13.1838 3.27241C10.5616 3.27241 8.0467 4.30646 6.19248 6.14708C4.33827 7.98771 3.29658 10.4841 3.29658 13.0872C3.29658 15.6902 4.33827 18.1866 6.19248 20.0272C8.0467 21.8679 10.5616 22.9019 13.1838 22.9019ZM23.5984 21.1124L29.4978 26.9685C29.6551 27.1195 29.7805 27.3001 29.8667 27.4997C29.9529 27.6994 29.9982 27.914 29.9999 28.1312C30.0017 28.3484 29.9598 28.5638 29.8768 28.7648C29.7938 28.9658 29.6714 29.1483 29.5165 29.3018C29.3617 29.4553 29.1776 29.5766 28.975 29.6587C28.7725 29.7408 28.5555 29.7821 28.3367 29.78C28.1179 29.778 27.9017 29.7327 27.7007 29.6468C27.4997 29.561 27.3179 29.4362 27.166 29.2799L21.2666 23.4237C18.6176 25.465 15.2845 26.4273 11.9459 26.1149C8.6072 25.8025 5.51397 24.2389 3.29584 21.7422C1.07771 19.2456 -0.0985627 16.0037 0.00647453 12.6765C0.111512 9.34922 1.48996 6.18678 3.86122 3.83291C6.23247 1.47904 9.41827 0.110694 12.7701 0.00642706C16.1219 -0.0978401 19.3878 1.06981 21.9028 3.27167C24.4179 5.47354 25.9931 8.5441 26.3078 11.8583C26.6225 15.1725 25.653 18.4811 23.5967 21.1107L23.5984 21.1124Z" fill="#F87D09" fill-opacity="0.5"/>
</svg>
