<svg width="29" height="30" viewBox="0 0 29 30" fill="none" xmlns="http://www.w3.org/2000/svg">
<g clip-path="url(#clip0_2_42)">
<path d="M15.795 7.58761L15.13 11.0797C14.99 11.7926 15.1767 12.5297 15.62 13.0855C16.0633 13.6414 16.7167 13.9676 17.4167 13.9676H23.8333V15.2726L20.835 22.4259H11.3967C11.1867 22.4259 11 22.2326 11 22.0151V12.5418L15.795 7.58761ZM16.8333 3.09261L9.355 10.838C8.91166 11.2972 8.66666 11.9134 8.66666 12.5539V22.0151C8.66666 23.5739 9.89166 24.8426 11.3967 24.8426H20.8467C21.675 24.8426 22.4333 24.3955 22.8533 23.6705L25.9683 16.2393C26.0967 15.9372 26.1667 15.6109 26.1667 15.2726V13.9676C26.1667 12.6384 25.1167 11.5509 23.8333 11.5509H17.4167L18.49 5.93219C18.5483 5.66636 18.5133 5.37636 18.3967 5.13469C18.1283 4.59094 17.79 4.09552 17.37 3.66052L16.8333 3.09261ZM5.16666 11.5509H2.83333V24.8426H5.16666C5.80833 24.8426 6.33333 24.2989 6.33333 23.6343V12.7593C6.33333 12.0947 5.80833 11.5509 5.16666 11.5509Z" fill="#A7CDCC"/>
</g>
<defs>
<clipPath id="clip0_2_42">
<rect width="28" height="29" fill="white" transform="translate(0.5 0.675934)"/>
</clipPath>
</defs>
</svg>
