<svg width="30" height="29" viewBox="0 0 30 29" fill="none" xmlns="http://www.w3.org/2000/svg">
<g clip-path="url(#clip0_2_45)">
<path d="M13.6588 22.0026L14.3475 18.6309C14.4925 17.9426 14.2992 17.2309 13.84 16.6943C13.3808 16.1576 12.7042 15.8426 11.9792 15.8426H5.33334V14.5826L8.43875 7.67594H18.2142C18.4317 7.67594 18.625 7.86261 18.625 8.07261V17.2193L13.6588 22.0026ZM12.5833 26.3426L20.3288 18.8643C20.7879 18.4209 21.0417 17.8259 21.0417 17.2076V8.07261C21.0417 6.56761 19.7729 5.34261 18.2142 5.34261H8.42667C7.56875 5.34261 6.78334 5.77427 6.34834 6.47427L3.12209 13.6493C2.98917 13.9409 2.91667 14.2559 2.91667 14.5826V15.8426C2.91667 17.1259 4.00417 18.1759 5.33334 18.1759H11.9792L10.8675 23.6009C10.8071 23.8576 10.8433 24.1376 10.9642 24.3709C11.2421 24.8959 11.5925 25.3743 12.0275 25.7943L12.5833 26.3426ZM24.6667 18.1759H27.0833V5.34261H24.6667C24.0021 5.34261 23.4583 5.86761 23.4583 6.50927V17.0093C23.4583 17.6509 24.0021 18.1759 24.6667 18.1759Z" fill="#A7CDCC"/>
</g>
<defs>
<clipPath id="clip0_2_45">
<rect width="29" height="28" fill="white" transform="translate(0.5 0.675934)"/>
</clipPath>
</defs>
</svg>
