<svg width="22" height="23" viewBox="0 0 22 23" fill="none" xmlns="http://www.w3.org/2000/svg">
<path d="M9.4147 0.175934C7.75298 0.175934 6.39338 1.44156 6.39338 2.98843H3.37206C1.71033 2.98843 0.350739 4.25406 0.350739 5.80093H21.5C21.5 4.25406 20.1404 2.98843 18.4787 2.98843H15.4573C15.4573 1.44156 14.0978 0.175934 12.436 0.175934H9.4147ZM3.37206 8.61343V22.1416C3.37206 22.4509 3.61377 22.6759 3.94611 22.6759H17.9348C18.2672 22.6759 18.5089 22.4509 18.5089 22.1416V8.61343H15.4876V18.4572C15.4876 19.2447 14.8229 19.8634 13.9769 19.8634C13.1309 19.8634 12.4662 19.2447 12.4662 18.4572V8.61343H9.44492V18.4572C9.44492 19.2447 8.78023 19.8634 7.93426 19.8634C7.08829 19.8634 6.4236 19.2447 6.4236 18.4572V8.61343H3.40227H3.37206Z" fill="#A7CDCC"/>
</svg>
