<svg width="22" height="24" viewBox="0 0 22 24" fill="none" xmlns="http://www.w3.org/2000/svg">
<path d="M9.48932 0.560059C7.82759 0.560059 6.468 1.82568 6.468 3.37256H3.44668C1.78495 3.37256 0.425354 4.63818 0.425354 6.18506H21.5746C21.5746 4.63818 20.215 3.37256 18.5533 3.37256H15.532C15.532 1.82568 14.1724 0.560059 12.5106 0.560059H9.48932ZM3.44668 8.99756V22.5257C3.44668 22.8351 3.68838 23.0601 4.02073 23.0601H18.0094C18.3418 23.0601 18.5835 22.8351 18.5835 22.5257V8.99756H15.5622V18.8413C15.5622 19.6288 14.8975 20.2476 14.0515 20.2476C13.2055 20.2476 12.5409 19.6288 12.5409 18.8413V8.99756H9.51953V18.8413C9.51953 19.6288 8.85484 20.2476 8.00887 20.2476C7.1629 20.2476 6.49821 19.6288 6.49821 18.8413V8.99756H3.47689H3.44668Z" fill="#A7CDCC"/>
</svg>
